<svg width="176" height="23" viewBox="0 0 176 23" fill="none" xmlns="http://www.w3.org/2000/svg">
<path fill-rule="evenodd" clip-rule="evenodd" d="M121.081 7.77462C119.954 7.77462 119.026 8.75902 119.026 9.95368V16.5048C119.026 17.6995 119.954 18.6839 121.081 18.6839H132.652C133.525 18.6839 134.232 19.4336 134.232 20.3584C134.232 21.2832 133.525 22.0329 132.652 22.0329H121.081C118.21 22.0329 115.867 19.5491 115.867 16.5048V9.95368C115.867 6.90938 118.21 4.42554 121.081 4.42554H132.652C135.524 4.42554 137.867 6.90938 137.867 9.95368V14.4137L121.483 14.8391C120.611 14.8617 119.887 14.1306 119.866 13.206C119.844 12.2815 120.534 11.5136 121.406 11.491L134.708 11.1456V9.95368C134.708 8.75902 133.779 7.77462 132.652 7.77462H121.081Z" fill="white"/>
<path fill-rule="evenodd" clip-rule="evenodd" d="M58.0145 7.77462C56.8876 7.77462 55.9591 8.75902 55.9591 9.95368V16.5048C55.9591 17.6995 56.8876 18.6839 58.0145 18.6839H68.6163C69.4887 18.6839 70.1958 19.4336 70.1958 20.3584C70.1958 21.2832 69.4887 22.0329 68.6163 22.0329H58.0145C55.1429 22.0329 52.8 19.5491 52.8 16.5048V9.95368C52.8 6.90938 55.1429 4.42554 58.0145 4.42554H69.5856C72.4572 4.42554 74.8 6.90938 74.8 9.95368V20.3584C74.8 21.2832 74.0929 22.0329 73.2205 22.0329C72.3482 22.0329 71.641 21.2832 71.641 20.3584V9.95368C71.641 8.75902 70.7125 7.77462 69.5856 7.77462H58.0145Z" fill="white"/>
<path fill-rule="evenodd" clip-rule="evenodd" d="M0 1.72069C0 0.783457 0.732982 0.0236816 1.63716 0.0236816H44.4619C47.4383 0.0236816 49.8667 2.54084 49.8667 5.62598V9.53128C49.8667 12.6164 47.4383 15.1336 44.4619 15.1336H30.4009V20.3359C30.4009 21.2732 29.6679 22.0329 28.7637 22.0329C27.8595 22.0329 27.1265 21.2732 27.1265 20.3359V11.7396H44.4619C45.6299 11.7396 46.5924 10.742 46.5924 9.53128V5.62598C46.5924 4.4153 45.6299 3.41769 44.4619 3.41769H1.63716C0.732982 3.41769 0 2.65792 0 1.72069Z" fill="white"/>
<path fill-rule="evenodd" clip-rule="evenodd" d="M154 9.22032C154 6.3327 156.349 4.02539 159.29 4.02539H170.71C173.651 4.02539 176 6.3327 176 9.22032V10.4732C176 11.3323 175.291 12.0288 174.416 12.0288C173.541 12.0288 172.832 11.3323 172.832 10.4732V9.22032C172.832 8.0509 171.901 7.13646 170.71 7.13646H159.29C158.099 7.13646 157.168 8.0509 157.168 9.22032V10.4732C157.168 11.3323 156.459 12.0288 155.584 12.0288C154.709 12.0288 154 11.3323 154 10.4732V9.22032Z" fill="white"/>
<path fill-rule="evenodd" clip-rule="evenodd" d="M155.584 14.0295C156.459 14.0295 157.168 14.7208 157.168 15.5736V16.8764C157.168 18.0372 158.099 18.9449 159.29 18.9449H170.71C171.901 18.9449 172.832 18.0372 172.832 16.8764V15.5736C172.832 14.7208 173.541 14.0295 174.416 14.0295C175.291 14.0295 176 14.7208 176 15.5736V16.8764C176 19.7427 173.651 22.0329 170.71 22.0329H159.29C156.349 22.0329 154 19.7427 154 16.8764V15.5736C154 14.7208 154.709 14.0295 155.584 14.0295Z" fill="white"/>
<path fill-rule="evenodd" clip-rule="evenodd" d="M87.0995 5.91143C88.2687 4.96031 89.8115 4.42554 91.4434 4.42554H105.09C106.722 4.42554 108.265 4.96031 109.434 5.91143C110.606 6.86519 111.467 8.30661 111.467 10.0384V20.3523C111.467 21.2805 110.765 22.0329 109.899 22.0329C109.034 22.0329 108.332 21.2805 108.332 20.3523V10.0384C108.332 9.57845 108.11 9.05379 107.539 8.58938C106.965 8.12235 106.103 7.78688 105.09 7.78688H91.4434C90.4301 7.78688 89.5682 8.12235 88.9941 8.58938C88.4232 9.05379 88.2014 9.57845 88.2014 10.0384V20.3523C88.2014 21.2805 87.4997 22.0329 86.634 22.0329C85.7684 22.0329 85.0667 21.2805 85.0667 20.3523V10.0384C85.0667 8.30661 85.927 6.86519 87.0995 5.91143Z" fill="white"/>
<path fill-rule="evenodd" clip-rule="evenodd" d="M98.2667 8.82739C99.0767 8.82739 99.7334 9.58996 99.7334 10.5306V20.3297C99.7334 21.2704 99.0767 22.0329 98.2667 22.0329C97.4567 22.0329 96.8 21.2704 96.8 20.3297V10.5306C96.8 9.58996 97.4567 8.82739 98.2667 8.82739Z" fill="white"/>
<path fill-rule="evenodd" clip-rule="evenodd" d="M79.5 0.0236816C80.3284 0.0236816 81 0.77021 81 1.6911V20.3655C81 21.2864 80.3284 22.0329 79.5 22.0329C78.6716 22.0329 78 21.2864 78 20.3655V1.6911C78 0.77021 78.6716 0.0236816 79.5 0.0236816Z" fill="white"/>
<path fill-rule="evenodd" clip-rule="evenodd" d="M142.267 0.0236816C143.077 0.0236816 143.733 0.77021 143.733 1.6911V20.3655C143.733 21.2864 143.077 22.0329 142.267 22.0329C141.457 22.0329 140.8 21.2864 140.8 20.3655V1.6911C140.8 0.77021 141.457 0.0236816 142.267 0.0236816Z" fill="white"/>
<path fill-rule="evenodd" clip-rule="evenodd" d="M140.8 7.36011C140.8 6.54975 141.539 5.89282 142.451 5.89282H149.416C150.328 5.89282 151.067 6.54975 151.067 7.36011C151.067 8.17047 150.328 8.82739 149.416 8.82739H142.451C141.539 8.82739 140.8 8.17047 140.8 7.36011Z" fill="white"/>
<path fill-rule="evenodd" clip-rule="evenodd" d="M167.999 17.6311H162.001C160.79 17.6311 159.867 16.4526 159.867 15.0662V11.3922C159.867 9.93652 160.847 8.82739 162.001 8.82739H167.999C169.211 8.82739 170.133 10.0058 170.133 11.3922V15.0662C170.133 16.4526 169.153 17.6311 167.999 17.6311Z" fill="#A6CC3A"/>
</svg>
